<?xml version="1.0" encoding="UTF-8"?>
<svg xmlns="http://www.w3.org/2000/svg" xmlns:xlink="http://www.w3.org/1999/xlink" width="64px" height="64px" viewBox="0 0 64 64" version="1.1">
<g id="surface1">
<path style=" stroke:none;fill-rule:evenodd;fill:#ddd;fill-opacity:1;" d="M 36.800781 9.601562 C 44.75 9.601562 51.199219 16.050781 51.199219 23.988281 C 51.199219 24.273438 51.1875 24.574219 51.175781 24.863281 L 51.199219 24.863281 L 51.199219 28.789062 C 58.0625 28.789062 63.648438 34.175781 63.988281 40.9375 L 64 41.574219 C 64 48.425781 58.613281 54.023438 51.835938 54.351562 L 51.199219 54.363281 L 51.199219 54.386719 L 35.199219 54.386719 L 35.199219 41.835938 L 43.085938 41.835938 L 32 28.8125 L 20.949219 41.851562 L 28.800781 41.851562 L 28.800781 54.398438 L 12.800781 54.398438 C 5.726562 54.375 0 48.648438 0 41.585938 C 0 35.398438 4.398438 30.238281 10.238281 29.050781 C 9.824219 27.988281 9.601562 26.824219 9.601562 25.613281 C 9.601562 20.3125 13.898438 16.011719 19.199219 16.011719 C 20.960938 16.011719 22.613281 16.488281 24.039062 17.3125 C 26.4375 12.738281 31.25 9.601562 36.800781 9.601562 Z M 36.800781 9.601562 "/>
</g>
</svg>
